<?xml version="1.0" encoding="UTF-8" standalone="no"?>
<!DOCTYPE svg PUBLIC "-//W3C//DTD SVG 1.1//EN"
 "http://www.w3.org/Graphics/SVG/1.1/DTD/svg11.dtd">
<!-- Generated by graphviz version 2.49.3 (20211023.0002)
 -->
<!-- Pages: 1 -->
<svg width="6825pt" height="392pt"
 viewBox="0.00 0.00 6825.50 392.00" xmlns="http://www.w3.org/2000/svg" xmlns:xlink="http://www.w3.org/1999/xlink">
<g id="graph0" class="graph" transform="scale(1 1) rotate(0) translate(4 388)">
<polygon fill="white" stroke="transparent" points="-4,4 -4,-388 6821.5,-388 6821.5,4 -4,4"/>
<!-- 0 -->
<g id="node1" class="node">
<title>0</title>
<ellipse fill="none" stroke="black" cx="2810.6" cy="-192" rx="574.6" ry="18"/>
<text text-anchor="middle" x="2810.6" y="-188.3" font-family="Times,serif" font-size="14.00">Tv(TypeVarNode { base_var: TypeVarControlState { dt_var: Uninteresting(TypeVariable { name: &quot;x&quot; }), variance: Contravariant }, access_path: [Store] })</text>
</g>
<!-- 1 -->
<g id="node2" class="node">
<title>1</title>
<ellipse fill="none" stroke="black" cx="2524.6" cy="-105" rx="540.5" ry="18"/>
<text text-anchor="middle" x="2524.6" y="-101.3" font-family="Times,serif" font-size="14.00">Tv(TypeVarNode { base_var: TypeVarControlState { dt_var: Uninteresting(TypeVariable { name: &quot;x&quot; }), variance: Covariant }, access_path: [] })</text>
</g>
<!-- 0&#45;&gt;1 -->
<g id="edge1" class="edge">
<title>0&#45;&gt;1</title>
<path fill="none" stroke="black" d="M2753.41,-174C2706.65,-160.1 2640.45,-140.43 2591.29,-125.82"/>
<polygon fill="black" stroke="black" points="2592.27,-122.46 2581.69,-122.97 2590.28,-129.17 2592.27,-122.46"/>
<text text-anchor="middle" x="2739.6" y="-144.8" font-family="Times,serif" font-size="14.00">Push(Label(Store))</text>
</g>
<!-- 2 -->
<g id="node3" class="node">
<title>2</title>
<ellipse fill="none" stroke="black" cx="4162.6" cy="-366" rx="27.9" ry="18"/>
<text text-anchor="middle" x="4162.6" y="-362.3" font-family="Times,serif" font-size="14.00">Start</text>
</g>
<!-- 3 -->
<g id="node4" class="node">
<title>3</title>
<ellipse fill="none" stroke="black" cx="2939.6" cy="-279" rx="644.19" ry="18"/>
<text text-anchor="middle" x="2939.6" y="-275.3" font-family="Times,serif" font-size="14.00">Tv(TypeVarNode { base_var: TypeVarControlState { dt_var: Interesting(InterestingVar { tv: TypeVariable { name: &quot;A&quot; }, dir: Lhs }), variance: Covariant }, access_path: [] })</text>
</g>
<!-- 2&#45;&gt;3 -->
<g id="edge2" class="edge">
<title>2&#45;&gt;3</title>
<path fill="none" stroke="black" d="M4134.76,-363.06C4009.28,-354.34 3488.93,-318.18 3177.7,-296.55"/>
<polygon fill="black" stroke="black" points="3177.85,-293.05 3167.63,-295.85 3177.37,-300.03 3177.85,-293.05"/>
<text text-anchor="middle" x="3879.6" y="-318.8" font-family="Times,serif" font-size="14.00">Pop(InterestingVar(InterestingVar { tv: TypeVariable { name: &quot;A&quot; }, dir: Lhs }, Covariant))</text>
</g>
<!-- 13 -->
<g id="node14" class="node">
<title>13</title>
<ellipse fill="none" stroke="black" cx="6125.6" cy="-279" rx="657.98" ry="18"/>
<text text-anchor="middle" x="6125.6" y="-275.3" font-family="Times,serif" font-size="14.00">Tv(TypeVarNode { base_var: TypeVarControlState { dt_var: Interesting(InterestingVar { tv: TypeVariable { name: &quot;B&quot; }, dir: Lhs }), variance: Contravariant }, access_path: [] })</text>
</g>
<!-- 2&#45;&gt;13 -->
<g id="edge8" class="edge">
<title>2&#45;&gt;13</title>
<path fill="none" stroke="black" d="M4190.35,-363.8C4360.45,-356.43 5271.62,-316.98 5780.75,-294.93"/>
<polygon fill="black" stroke="black" points="5780.99,-298.43 5790.83,-294.5 5780.69,-291.43 5780.99,-298.43"/>
<text text-anchor="middle" x="5528.1" y="-318.8" font-family="Times,serif" font-size="14.00">Pop(InterestingVar(InterestingVar { tv: TypeVariable { name: &quot;B&quot; }, dir: Lhs }, Contravariant))</text>
</g>
<!-- 3&#45;&gt;0 -->
<g id="edge9" class="edge">
<title>3&#45;&gt;0</title>
<path fill="none" stroke="black" d="M2913.81,-261C2894.16,-248.06 2866.91,-230.11 2845.35,-215.9"/>
<polygon fill="black" stroke="black" points="2847.07,-212.84 2836.79,-210.26 2843.22,-218.68 2847.07,-212.84"/>
<text text-anchor="middle" x="2905.1" y="-231.8" font-family="Times,serif" font-size="14.00">Success</text>
</g>
<!-- 4 -->
<g id="node5" class="node">
<title>4</title>
<ellipse fill="none" stroke="black" cx="3865.6" cy="-105" rx="659.08" ry="18"/>
<text text-anchor="middle" x="3865.6" y="-101.3" font-family="Times,serif" font-size="14.00">Tv(TypeVarNode { base_var: TypeVarControlState { dt_var: Interesting(InterestingVar { tv: TypeVariable { name: &quot;A&quot; }, dir: Rhs }), variance: Contravariant }, access_path: [] })</text>
</g>
<!-- 5 -->
<g id="node6" class="node">
<title>5</title>
<ellipse fill="none" stroke="black" cx="2286.6" cy="-18" rx="27" ry="18"/>
<text text-anchor="middle" x="2286.6" y="-14.3" font-family="Times,serif" font-size="14.00">End</text>
</g>
<!-- 4&#45;&gt;5 -->
<g id="edge3" class="edge">
<title>4&#45;&gt;5</title>
<path fill="none" stroke="black" d="M3581.94,-88.73C3184.35,-67.33 2491.1,-30.01 2323.74,-21"/>
<polygon fill="black" stroke="black" points="2323.88,-17.5 2313.7,-20.46 2323.5,-24.49 2323.88,-17.5"/>
<text text-anchor="middle" x="3440.6" y="-57.8" font-family="Times,serif" font-size="14.00">Push(InterestingVar(InterestingVar { tv: TypeVariable { name: &quot;A&quot; }, dir: Rhs }, Contravariant))</text>
</g>
<!-- 6 -->
<g id="node7" class="node">
<title>6</title>
<ellipse fill="none" stroke="black" cx="4648.6" cy="-279" rx="555.1" ry="18"/>
<text text-anchor="middle" x="4648.6" y="-275.3" font-family="Times,serif" font-size="14.00">Tv(TypeVarNode { base_var: TypeVarControlState { dt_var: Uninteresting(TypeVariable { name: &quot;x&quot; }), variance: Contravariant }, access_path: [] })</text>
</g>
<!-- 7 -->
<g id="node8" class="node">
<title>7</title>
<ellipse fill="none" stroke="black" cx="3963.6" cy="-192" rx="560" ry="18"/>
<text text-anchor="middle" x="3963.6" y="-188.3" font-family="Times,serif" font-size="14.00">Tv(TypeVarNode { base_var: TypeVarControlState { dt_var: Uninteresting(TypeVariable { name: &quot;x&quot; }), variance: Covariant }, access_path: [Store] })</text>
</g>
<!-- 6&#45;&gt;7 -->
<g id="edge4" class="edge">
<title>6&#45;&gt;7</title>
<path fill="none" stroke="black" d="M4515.71,-261.51C4398.21,-246.93 4227.23,-225.71 4106.74,-210.76"/>
<polygon fill="black" stroke="black" points="4107.06,-207.27 4096.7,-209.52 4106.19,-214.22 4107.06,-207.27"/>
<text text-anchor="middle" x="4397.6" y="-231.8" font-family="Times,serif" font-size="14.00">Pop(Label(Store))</text>
</g>
<!-- 15 -->
<g id="node16" class="node">
<title>15</title>
<ellipse fill="none" stroke="black" cx="5096.6" cy="-192" rx="555.1" ry="18"/>
<text text-anchor="middle" x="5096.6" y="-188.3" font-family="Times,serif" font-size="14.00">Tv(TypeVarNode { base_var: TypeVarControlState { dt_var: Uninteresting(TypeVariable { name: &quot;p&quot; }), variance: Contravariant }, access_path: [] })</text>
</g>
<!-- 6&#45;&gt;15 -->
<g id="edge12" class="edge">
<title>6&#45;&gt;15</title>
<path fill="none" stroke="black" d="M4737.11,-261.21C4812.31,-246.94 4920.14,-226.48 4998.06,-211.7"/>
<polygon fill="black" stroke="black" points="4998.72,-215.13 5007.89,-209.83 4997.41,-208.26 4998.72,-215.13"/>
<text text-anchor="middle" x="4921.1" y="-231.8" font-family="Times,serif" font-size="14.00">Success</text>
</g>
<!-- 7&#45;&gt;4 -->
<g id="edge10" class="edge">
<title>7&#45;&gt;4</title>
<path fill="none" stroke="black" d="M3943.77,-173.8C3929.16,-161.13 3909.1,-143.73 3892.97,-129.74"/>
<polygon fill="black" stroke="black" points="3895.25,-127.08 3885.4,-123.18 3890.66,-132.37 3895.25,-127.08"/>
<text text-anchor="middle" x="3942.1" y="-144.8" font-family="Times,serif" font-size="14.00">Success</text>
</g>
<!-- 8 -->
<g id="node9" class="node">
<title>8</title>
<ellipse fill="none" stroke="black" cx="1076.6" cy="-105" rx="644.19" ry="18"/>
<text text-anchor="middle" x="1076.6" y="-101.3" font-family="Times,serif" font-size="14.00">Tv(TypeVarNode { base_var: TypeVarControlState { dt_var: Interesting(InterestingVar { tv: TypeVariable { name: &quot;B&quot; }, dir: Rhs }), variance: Covariant }, access_path: [] })</text>
</g>
<!-- 8&#45;&gt;5 -->
<g id="edge5" class="edge">
<title>8&#45;&gt;5</title>
<path fill="none" stroke="black" d="M1302.42,-88.14C1602.02,-67.09 2109.46,-31.44 2249.72,-21.59"/>
<polygon fill="black" stroke="black" points="2250.2,-25.07 2259.93,-20.87 2249.71,-18.08 2250.2,-25.07"/>
<text text-anchor="middle" x="2013.6" y="-57.8" font-family="Times,serif" font-size="14.00">Push(InterestingVar(InterestingVar { tv: TypeVariable { name: &quot;B&quot; }, dir: Rhs }, Covariant))</text>
</g>
<!-- 9 -->
<g id="node10" class="node">
<title>9</title>
<ellipse fill="none" stroke="black" cx="1461.6" cy="-279" rx="540.5" ry="18"/>
<text text-anchor="middle" x="1461.6" y="-275.3" font-family="Times,serif" font-size="14.00">Tv(TypeVarNode { base_var: TypeVarControlState { dt_var: Uninteresting(TypeVariable { name: &quot;y&quot; }), variance: Covariant }, access_path: [] })</text>
</g>
<!-- 10 -->
<g id="node11" class="node">
<title>10</title>
<ellipse fill="none" stroke="black" cx="559.6" cy="-192" rx="559.7" ry="18"/>
<text text-anchor="middle" x="559.6" y="-188.3" font-family="Times,serif" font-size="14.00">Tv(TypeVarNode { base_var: TypeVarControlState { dt_var: Uninteresting(TypeVariable { name: &quot;y&quot; }), variance: Covariant }, access_path: [Load] })</text>
</g>
<!-- 9&#45;&gt;10 -->
<g id="edge6" class="edge">
<title>9&#45;&gt;10</title>
<path fill="none" stroke="black" d="M1290.88,-261.91C1133.8,-247.11 901.56,-225.22 741.13,-210.11"/>
<polygon fill="black" stroke="black" points="741.44,-206.62 731.15,-209.17 740.78,-213.59 741.44,-206.62"/>
<text text-anchor="middle" x="1116.6" y="-231.8" font-family="Times,serif" font-size="14.00">Pop(Label(Load))</text>
</g>
<!-- 14 -->
<g id="node15" class="node">
<title>14</title>
<ellipse fill="none" stroke="black" cx="1677.6" cy="-192" rx="540.5" ry="18"/>
<text text-anchor="middle" x="1677.6" y="-188.3" font-family="Times,serif" font-size="14.00">Tv(TypeVarNode { base_var: TypeVarControlState { dt_var: Uninteresting(TypeVariable { name: &quot;p&quot; }), variance: Covariant }, access_path: [] })</text>
</g>
<!-- 9&#45;&gt;14 -->
<g id="edge13" class="edge">
<title>9&#45;&gt;14</title>
<path fill="none" stroke="black" d="M1504.79,-261C1539.37,-247.39 1588.03,-228.25 1624.9,-213.74"/>
<polygon fill="black" stroke="black" points="1626.46,-216.89 1634.48,-209.97 1623.9,-210.37 1626.46,-216.89"/>
<text text-anchor="middle" x="1605.1" y="-231.8" font-family="Times,serif" font-size="14.00">Success</text>
</g>
<!-- 10&#45;&gt;8 -->
<g id="edge15" class="edge">
<title>10&#45;&gt;8</title>
<path fill="none" stroke="black" d="M661.43,-174.26C748.77,-159.9 874.4,-139.24 964.56,-124.42"/>
<polygon fill="black" stroke="black" points="965.25,-127.85 974.55,-122.78 964.11,-120.95 965.25,-127.85"/>
<text text-anchor="middle" x="872.1" y="-144.8" font-family="Times,serif" font-size="14.00">Success</text>
</g>
<!-- 11 -->
<g id="node12" class="node">
<title>11</title>
<ellipse fill="none" stroke="black" cx="6243.6" cy="-192" rx="573.8" ry="18"/>
<text text-anchor="middle" x="6243.6" y="-188.3" font-family="Times,serif" font-size="14.00">Tv(TypeVarNode { base_var: TypeVarControlState { dt_var: Uninteresting(TypeVariable { name: &quot;y&quot; }), variance: Contravariant }, access_path: [Load] })</text>
</g>
<!-- 12 -->
<g id="node13" class="node">
<title>12</title>
<ellipse fill="none" stroke="black" cx="5158.6" cy="-105" rx="555.1" ry="18"/>
<text text-anchor="middle" x="5158.6" y="-101.3" font-family="Times,serif" font-size="14.00">Tv(TypeVarNode { base_var: TypeVarControlState { dt_var: Uninteresting(TypeVariable { name: &quot;y&quot; }), variance: Contravariant }, access_path: [] })</text>
</g>
<!-- 11&#45;&gt;12 -->
<g id="edge7" class="edge">
<title>11&#45;&gt;12</title>
<path fill="none" stroke="black" d="M6041.11,-175.14C5849.89,-160.16 5564.24,-137.78 5370.12,-122.57"/>
<polygon fill="black" stroke="black" points="5370.32,-119.08 5360.07,-121.78 5369.77,-126.05 5370.32,-119.08"/>
<text text-anchor="middle" x="5819.1" y="-144.8" font-family="Times,serif" font-size="14.00">Push(Label(Load))</text>
</g>
<!-- 13&#45;&gt;11 -->
<g id="edge16" class="edge">
<title>13&#45;&gt;11</title>
<path fill="none" stroke="black" d="M6149.2,-261C6167.01,-248.17 6191.65,-230.42 6211.29,-216.28"/>
<polygon fill="black" stroke="black" points="6213.57,-218.94 6219.64,-210.26 6209.48,-213.26 6213.57,-218.94"/>
<text text-anchor="middle" x="6214.1" y="-231.8" font-family="Times,serif" font-size="14.00">Success</text>
</g>
<!-- 14&#45;&gt;1 -->
<g id="edge11" class="edge">
<title>14&#45;&gt;1</title>
<path fill="none" stroke="black" d="M1838.91,-174.81C1986,-160.05 2202.67,-138.31 2352.92,-123.23"/>
<polygon fill="black" stroke="black" points="2353.57,-126.68 2363.17,-122.2 2352.87,-119.72 2353.57,-126.68"/>
<text text-anchor="middle" x="2175.1" y="-144.8" font-family="Times,serif" font-size="14.00">Success</text>
</g>
<!-- 15&#45;&gt;12 -->
<g id="edge14" class="edge">
<title>15&#45;&gt;12</title>
<path fill="none" stroke="black" d="M5108.39,-173.74C5115.09,-164.04 5123.69,-151.76 5131.6,-141 5133.87,-137.91 5136.28,-134.7 5138.69,-131.52"/>
<polygon fill="black" stroke="black" points="5141.67,-133.39 5144.98,-123.33 5136.12,-129.13 5141.67,-133.39"/>
<text text-anchor="middle" x="5154.1" y="-144.8" font-family="Times,serif" font-size="14.00">Success</text>
</g>
</g>
</svg>
