<?xml version="1.0" encoding="UTF-8" standalone="no"?>
<!DOCTYPE svg PUBLIC "-//W3C//DTD SVG 1.1//EN"
 "http://www.w3.org/Graphics/SVG/1.1/DTD/svg11.dtd">
<!-- Generated by graphviz version 2.49.3 (20211023.0002)
 -->
<!-- Pages: 1 -->
<svg width="535pt" height="392pt"
 viewBox="0.00 0.00 534.59 392.00" xmlns="http://www.w3.org/2000/svg" xmlns:xlink="http://www.w3.org/1999/xlink">
<g id="graph0" class="graph" transform="scale(1 1) rotate(0) translate(4 388)">
<polygon fill="white" stroke="transparent" points="-4,4 -4,-388 530.59,-388 530.59,4 -4,4"/>
<!-- 0 -->
<g id="node1" class="node">
<title>0</title>
<ellipse fill="none" stroke="black" cx="212.3" cy="-192" rx="42.49" ry="18"/>
<text text-anchor="middle" x="212.3" y="-188.3" font-family="Times,serif" font-size="14.00">x⊖.store</text>
</g>
<!-- 1 -->
<g id="node2" class="node">
<title>1</title>
<ellipse fill="none" stroke="black" cx="165.3" cy="-105" rx="27" ry="18"/>
<text text-anchor="middle" x="165.3" y="-101.3" font-family="Times,serif" font-size="14.00">x⊕</text>
</g>
<!-- 0&#45;&gt;1 -->
<g id="edge1" class="edge">
<title>0&#45;&gt;1</title>
<path fill="none" stroke="black" d="M203.01,-174.21C196.23,-161.94 186.92,-145.1 179.24,-131.22"/>
<polygon fill="black" stroke="black" points="182.15,-129.24 174.24,-122.18 176.02,-132.63 182.15,-129.24"/>
<text text-anchor="middle" x="221.8" y="-144.8" font-family="Times,serif" font-size="14.00">push_store</text>
</g>
<!-- 2 -->
<g id="node3" class="node">
<title>2</title>
<ellipse fill="none" stroke="black" cx="331.3" cy="-366" rx="38.19" ry="18"/>
<text text-anchor="middle" x="331.3" y="-362.3" font-family="Times,serif" font-size="14.00">START</text>
</g>
<!-- 3 -->
<g id="node4" class="node">
<title>3</title>
<ellipse fill="none" stroke="black" cx="241.3" cy="-279" rx="34.39" ry="18"/>
<text text-anchor="middle" x="241.3" y="-275.3" font-family="Times,serif" font-size="14.00">A_L⊕</text>
</g>
<!-- 2&#45;&gt;3 -->
<g id="edge2" class="edge">
<title>2&#45;&gt;3</title>
<path fill="none" stroke="black" d="M314.79,-349.41C300.75,-336.15 280.42,-316.95 264.7,-302.1"/>
<polygon fill="black" stroke="black" points="267.07,-299.53 257.4,-295.21 262.26,-304.62 267.07,-299.53"/>
<text text-anchor="middle" x="323.8" y="-318.8" font-family="Times,serif" font-size="14.00">pop_A_L⊕</text>
</g>
<!-- 13 -->
<g id="node14" class="node">
<title>13</title>
<ellipse fill="none" stroke="black" cx="418.3" cy="-279" rx="33.6" ry="18"/>
<text text-anchor="middle" x="418.3" y="-275.3" font-family="Times,serif" font-size="14.00">B_L⊖</text>
</g>
<!-- 2&#45;&gt;13 -->
<g id="edge8" class="edge">
<title>2&#45;&gt;13</title>
<path fill="none" stroke="black" d="M347.25,-349.41C360.7,-336.27 380.12,-317.29 395.26,-302.5"/>
<polygon fill="black" stroke="black" points="398.03,-304.7 402.73,-295.21 393.13,-299.69 398.03,-304.7"/>
<text text-anchor="middle" x="411.3" y="-318.8" font-family="Times,serif" font-size="14.00">pop_B_L⊖</text>
</g>
<!-- 3&#45;&gt;0 -->
<g id="edge9" class="edge">
<title>3&#45;&gt;0</title>
<path fill="none" stroke="black" d="M235.57,-261.21C231.54,-249.41 226.07,-233.38 221.45,-219.82"/>
<polygon fill="black" stroke="black" points="224.65,-218.38 218.11,-210.05 218.03,-220.64 224.65,-218.38"/>
<text text-anchor="middle" x="232.3" y="-231.8" font-family="Times,serif" font-size="14.00">1</text>
</g>
<!-- 4 -->
<g id="node5" class="node">
<title>4</title>
<ellipse fill="none" stroke="black" cx="262.3" cy="-105" rx="34.39" ry="18"/>
<text text-anchor="middle" x="262.3" y="-101.3" font-family="Times,serif" font-size="14.00">A_R⊖</text>
</g>
<!-- 5 -->
<g id="node6" class="node">
<title>5</title>
<ellipse fill="none" stroke="black" cx="167.3" cy="-18" rx="29.5" ry="18"/>
<text text-anchor="middle" x="167.3" y="-14.3" font-family="Times,serif" font-size="14.00">END</text>
</g>
<!-- 4&#45;&gt;5 -->
<g id="edge3" class="edge">
<title>4&#45;&gt;5</title>
<path fill="none" stroke="black" d="M245.75,-89.19C230.67,-75.71 208.23,-55.62 191.2,-40.39"/>
<polygon fill="black" stroke="black" points="193.12,-37.41 183.34,-33.35 188.46,-42.63 193.12,-37.41"/>
<text text-anchor="middle" x="255.8" y="-57.8" font-family="Times,serif" font-size="14.00">push_A_R⊖</text>
</g>
<!-- 6 -->
<g id="node7" class="node">
<title>6</title>
<ellipse fill="none" stroke="black" cx="331.3" cy="-279" rx="27" ry="18"/>
<text text-anchor="middle" x="331.3" y="-275.3" font-family="Times,serif" font-size="14.00">x⊖</text>
</g>
<!-- 7 -->
<g id="node8" class="node">
<title>7</title>
<ellipse fill="none" stroke="black" cx="314.3" cy="-192" rx="42.49" ry="18"/>
<text text-anchor="middle" x="314.3" y="-188.3" font-family="Times,serif" font-size="14.00">x⊕.store</text>
</g>
<!-- 6&#45;&gt;7 -->
<g id="edge4" class="edge">
<title>6&#45;&gt;7</title>
<path fill="none" stroke="black" d="M325.93,-261.03C324.27,-255.34 322.55,-248.94 321.3,-243 319.74,-235.66 318.44,-227.63 317.4,-220.2"/>
<polygon fill="black" stroke="black" points="320.87,-219.69 316.11,-210.23 313.93,-220.59 320.87,-219.69"/>
<text text-anchor="middle" x="349.3" y="-231.8" font-family="Times,serif" font-size="14.00">pop_store</text>
</g>
<!-- 15 -->
<g id="node16" class="node">
<title>15</title>
<ellipse fill="none" stroke="black" cx="401.3" cy="-192" rx="27" ry="18"/>
<text text-anchor="middle" x="401.3" y="-188.3" font-family="Times,serif" font-size="14.00">p⊖</text>
</g>
<!-- 6&#45;&gt;15 -->
<g id="edge12" class="edge">
<title>6&#45;&gt;15</title>
<path fill="none" stroke="black" d="M350.92,-266.14C359.81,-260.05 369.94,-252.02 377.3,-243 383.01,-236 387.75,-227.41 391.48,-219.34"/>
<polygon fill="black" stroke="black" points="394.8,-220.47 395.51,-209.89 388.37,-217.72 394.8,-220.47"/>
<text text-anchor="middle" x="390.3" y="-231.8" font-family="Times,serif" font-size="14.00">1</text>
</g>
<!-- 7&#45;&gt;4 -->
<g id="edge10" class="edge">
<title>7&#45;&gt;4</title>
<path fill="none" stroke="black" d="M304.02,-174.21C296.5,-161.9 286.15,-145 277.65,-131.09"/>
<polygon fill="black" stroke="black" points="280.58,-129.17 272.37,-122.47 274.6,-132.83 280.58,-129.17"/>
<text text-anchor="middle" x="295.3" y="-144.8" font-family="Times,serif" font-size="14.00">1</text>
</g>
<!-- 8 -->
<g id="node9" class="node">
<title>8</title>
<ellipse fill="none" stroke="black" cx="77.3" cy="-105" rx="34.39" ry="18"/>
<text text-anchor="middle" x="77.3" y="-101.3" font-family="Times,serif" font-size="14.00">B_R⊕</text>
</g>
<!-- 8&#45;&gt;5 -->
<g id="edge5" class="edge">
<title>8&#45;&gt;5</title>
<path fill="none" stroke="black" d="M93.39,-88.8C107.64,-75.34 128.6,-55.55 144.56,-40.47"/>
<polygon fill="black" stroke="black" points="147.08,-42.91 151.95,-33.5 142.27,-37.82 147.08,-42.91"/>
<text text-anchor="middle" x="163.3" y="-57.8" font-family="Times,serif" font-size="14.00">push_B_R⊕</text>
</g>
<!-- 9 -->
<g id="node10" class="node">
<title>9</title>
<ellipse fill="none" stroke="black" cx="82.3" cy="-279" rx="27" ry="18"/>
<text text-anchor="middle" x="82.3" y="-275.3" font-family="Times,serif" font-size="14.00">y⊕</text>
</g>
<!-- 10 -->
<g id="node11" class="node">
<title>10</title>
<ellipse fill="none" stroke="black" cx="40.3" cy="-192" rx="40.09" ry="18"/>
<text text-anchor="middle" x="40.3" y="-188.3" font-family="Times,serif" font-size="14.00">y⊕.load</text>
</g>
<!-- 9&#45;&gt;10 -->
<g id="edge6" class="edge">
<title>9&#45;&gt;10</title>
<path fill="none" stroke="black" d="M64.67,-265.22C57.79,-259.26 50.55,-251.59 46.3,-243 42.83,-236 41.05,-227.79 40.21,-220.07"/>
<polygon fill="black" stroke="black" points="43.7,-219.77 39.56,-210.01 36.71,-220.21 43.7,-219.77"/>
<text text-anchor="middle" x="72.8" y="-231.8" font-family="Times,serif" font-size="14.00">pop_load</text>
</g>
<!-- 14 -->
<g id="node15" class="node">
<title>14</title>
<ellipse fill="none" stroke="black" cx="125.3" cy="-192" rx="27" ry="18"/>
<text text-anchor="middle" x="125.3" y="-188.3" font-family="Times,serif" font-size="14.00">p⊕</text>
</g>
<!-- 9&#45;&gt;14 -->
<g id="edge13" class="edge">
<title>9&#45;&gt;14</title>
<path fill="none" stroke="black" d="M90.59,-261.61C96.77,-249.38 105.34,-232.44 112.42,-218.46"/>
<polygon fill="black" stroke="black" points="115.64,-219.84 117.03,-209.34 109.39,-216.68 115.64,-219.84"/>
<text text-anchor="middle" x="111.3" y="-231.8" font-family="Times,serif" font-size="14.00">1</text>
</g>
<!-- 10&#45;&gt;8 -->
<g id="edge15" class="edge">
<title>10&#45;&gt;8</title>
<path fill="none" stroke="black" d="M47.61,-174.21C52.83,-162.22 59.95,-145.85 65.91,-132.16"/>
<polygon fill="black" stroke="black" points="69.22,-133.32 70,-122.76 62.8,-130.53 69.22,-133.32"/>
<text text-anchor="middle" x="65.3" y="-144.8" font-family="Times,serif" font-size="14.00">1</text>
</g>
<!-- 11 -->
<g id="node12" class="node">
<title>11</title>
<ellipse fill="none" stroke="black" cx="486.3" cy="-192" rx="40.09" ry="18"/>
<text text-anchor="middle" x="486.3" y="-188.3" font-family="Times,serif" font-size="14.00">y⊖.load</text>
</g>
<!-- 12 -->
<g id="node13" class="node">
<title>12</title>
<ellipse fill="none" stroke="black" cx="443.3" cy="-105" rx="27" ry="18"/>
<text text-anchor="middle" x="443.3" y="-101.3" font-family="Times,serif" font-size="14.00">y⊖</text>
</g>
<!-- 11&#45;&gt;12 -->
<g id="edge7" class="edge">
<title>11&#45;&gt;12</title>
<path fill="none" stroke="black" d="M477.8,-174.21C471.6,-161.94 463.08,-145.1 456.06,-131.22"/>
<polygon fill="black" stroke="black" points="459.12,-129.52 451.48,-122.18 452.87,-132.68 459.12,-129.52"/>
<text text-anchor="middle" x="496.3" y="-144.8" font-family="Times,serif" font-size="14.00">push_load</text>
</g>
<!-- 13&#45;&gt;11 -->
<g id="edge16" class="edge">
<title>13&#45;&gt;11</title>
<path fill="none" stroke="black" d="M431.09,-262.01C441.19,-249.39 455.44,-231.57 466.94,-217.2"/>
<polygon fill="black" stroke="black" points="469.82,-219.2 473.33,-209.21 464.35,-214.83 469.82,-219.2"/>
<text text-anchor="middle" x="460.3" y="-231.8" font-family="Times,serif" font-size="14.00">1</text>
</g>
<!-- 14&#45;&gt;1 -->
<g id="edge11" class="edge">
<title>14&#45;&gt;1</title>
<path fill="none" stroke="black" d="M133.01,-174.61C138.76,-162.38 146.74,-145.44 153.32,-131.46"/>
<polygon fill="black" stroke="black" points="156.52,-132.88 157.61,-122.34 150.18,-129.9 156.52,-132.88"/>
<text text-anchor="middle" x="152.3" y="-144.8" font-family="Times,serif" font-size="14.00">1</text>
</g>
<!-- 15&#45;&gt;12 -->
<g id="edge14" class="edge">
<title>15&#45;&gt;12</title>
<path fill="none" stroke="black" d="M409.39,-174.61C415.44,-162.38 423.81,-145.44 430.72,-131.46"/>
<polygon fill="black" stroke="black" points="433.93,-132.85 435.22,-122.34 427.66,-129.75 433.93,-132.85"/>
<text text-anchor="middle" x="428.3" y="-144.8" font-family="Times,serif" font-size="14.00">1</text>
</g>
</g>
</svg>
